<?xml version="1.0" encoding="UTF-8" standalone="no"?>
<!-- Generated by IcoMoon.io -->

<svg
   xmlns:dc="http://purl.org/dc/elements/1.1/"
   xmlns:cc="http://creativecommons.org/ns#"
   xmlns:rdf="http://www.w3.org/1999/02/22-rdf-syntax-ns#"
   xmlns:svg="http://www.w3.org/2000/svg"
   xmlns="http://www.w3.org/2000/svg"
   xmlns:sodipodi="http://sodipodi.sourceforge.net/DTD/sodipodi-0.dtd"
   xmlns:inkscape="http://www.inkscape.org/namespaces/inkscape"
   height="24"
   width="24"
   version="1.1"
   viewBox="0 0 24 24"
   id="svg2"
   inkscape:version="0.48.5 r10040"
   sodipodi:docname="introduction.svg">
  <defs
     id="defs14" />
  <sodipodi:namedview
     pagecolor="#ffffff"
     bordercolor="#666666"
     borderopacity="1"
     objecttolerance="10"
     gridtolerance="10"
     guidetolerance="10"
     inkscape:pageopacity="0"
     inkscape:pageshadow="2"
     inkscape:window-width="1920"
     inkscape:window-height="1028"
     id="namedview12"
     showgrid="false"
     inkscape:zoom="39.333333"
     inkscape:cx="8.0338983"
     inkscape:cy="11.491525"
     inkscape:window-x="-8"
     inkscape:window-y="-8"
     inkscape:window-maximized="1"
     inkscape:current-layer="svg2" />
  <metadata
     id="metadata4">
    <rdf:RDF>
      <cc:Work
         rdf:about="">
        <dc:format>image/svg+xml</dc:format>
        <dc:type
           rdf:resource="http://purl.org/dc/dcmitype/StillImage" />
        <dc:title />
      </cc:Work>
    </rdf:RDF>
  </metadata>
  <path
     style="text-indent:0;text-align:start;text-transform:none;direction:ltr;block-progression:tb;baseline-shift:baseline;color:#000000;fill:#000000;enable-background:accumulate"
     d="m 3.0625237,2.440472 a 0.98784622,0.98081165 0 0 0 -0.78125,0.96875 l 0,17.21875 a 0.98784622,0.98081165 0 0 0 1,0.9375 l 17.4375003,0 a 0.98784622,0.98081165 0 0 0 1,-0.9375 l 0,-17.21875 a 0.98784622,0.98081165 0 0 0 -1,-0.96875 l -17.4375003,0 a 0.98784622,0.98081165 0 0 0 -0.21875,0 z m 0.8125,1.4375 16.2500003,0 0,16.25 -16.2500003,0 0,-16.25 z"
     id="path6"
     inkscape:connector-curvature="0" />
  <path
     style="fill:#000000;fill-opacity:1;fill-rule:nonzero;stroke:none"
     d="m 10.765625,5.6875 0,2.21875 2.46875,0 0,-2.21875 -2.46875,0 z m 0,4.59375 0,8.03125 2.46875,0 0,-8.03125 -2.46875,0 z"
     id="rect3771-7"
     inkscape:connector-curvature="0" />
</svg>
